<?xml version="1.0" encoding="UTF-8"?>
<!DOCTYPE svg PUBLIC "-//W3C//DTD SVG 1.1//EN" "http://www.w3.org/Graphics/SVG/1.1/DTD/svg11.dtd">
<!-- Creator: CorelDRAW 2020 (64-Bit) -->
<svg xmlns="http://www.w3.org/2000/svg" xml:space="preserve" width="100.2mm" height="100.2mm" version="1.1" style="shape-rendering:geometricPrecision; text-rendering:geometricPrecision; image-rendering:optimizeQuality; fill-rule:evenodd; clip-rule:evenodd"
viewBox="0 0 648.34 648.34"
 xmlns:xlink="http://www.w3.org/1999/xlink"
 xmlns:xodm="http://www.corel.com/coreldraw/odm/2003">
 <defs>
  <style type="text/css">
   <![CDATA[
    .str0 {stroke:#373435;stroke-width:1.29;stroke-miterlimit:22.9256}
    .fil1 {fill:#FEFEFE}
    .fil0 {fill:#373435}
    .fil2 {fill:#F3B43D}
   ]]>
  </style>
 </defs>
 <g id="Слой_x0020_1">
  <metadata id="CorelCorpID_0Corel-Layer"/>
  <circle class="fil0 str0" cx="324.17" cy="324.17" r="323.52"/>
  <g id="_2226493946256">
   <path class="fil1" d="M493.65 219.51l-10.4 18.01 -35.35 0 -15.49 -26.82 -2.2 -3.8 70.7 0 -7.27 12.61zm-116.46 -43.22l17.67 30.61 0.01 0 0 0.01 6.94 12.01 10.74 18.6 17.67 30.61 35.35 0 -2.53 4.4 -15.14 26.22 -0.01 0 15.15 26.23 2.52 4.39 0.01 0 17.67 -30.62 3.2 -5.53 0.14 -0.23 0.32 -0.54 1.04 -1.79 2.93 -5.07 2.04 -3.55 0.74 -1.28 0 -0.02 7.27 -12.61 0.01 0 17.67 -30.61 0.01 0 0 -0.01 5.66 -9.8 0 -0.01 12.01 -20.8 0 -0.01 17.67 -30.6 0 -0.01 -176.76 0z"/>
   <polygon class="fil2" points="377.2,482.44 371.2,492.84 371.2,492.85 359.52,513.05 341.85,543.67 341.85,543.68 341.81,543.75 341.33,544.58 341.18,544.82 340.57,545.87 324.17,574.28 309.97,549.68 306.49,543.67 288.82,513.06 288.82,513.05 279.35,496.64 271.15,482.44 253.47,451.83 253.47,451.83 248.73,443.63 235.8,421.22 235.79,421.22 235.79,421.21 218.12,390.6 253.47,390.6 271.15,421.22 279.35,435.43 288.82,451.83 306.49,482.44 309.97,488.45 324.17,513.05 324.17,513.06 324.18,513.05 340.57,484.64 341.85,482.44 340.57,480.24 324.18,451.83 309.97,427.22 306.5,421.22 306.49,421.22 306.49,421.21 288.82,390.6 279.35,374.19 271.15,359.98 200.44,359.98 187.5,337.57 182.77,329.37 182.76,329.37 165.09,298.75 156.89,284.55 147.42,268.14 147.42,268.13 129.74,237.52 126.27,231.51 112.07,206.91 112.07,206.9 112.06,206.9 95.66,178.5 94.39,176.29 200.44,176.29 218.12,206.9 218.12,206.91 235.79,237.52 248.73,259.94 253.47,268.13 253.47,268.14 271.15,298.75 235.79,298.75 218.12,268.13 200.44,237.52 187.5,215.1 182.76,206.9 147.42,206.9 147.42,206.91 156.89,223.32 165.09,237.52 182.76,268.13 182.76,268.14 187.5,276.34 200.44,298.75 200.44,298.75 218.12,329.37 288.82,329.37 306.49,359.98 306.49,359.99 309.97,365.99 324.17,390.6 340.57,419.01 341.85,421.22 359.52,451.83 371.2,472.05 "/>
   <path class="fil1" d="M412.55 359.99l-10.74 18.59 -6.94 12.02 -17.67 -30.61 -0.01 -0.01 -6 -10.4 -11.68 -20.21 -17.67 -30.62 35.35 0 17.67 30.61 0 0.01 0.01 0 6.93 12 10.74 18.61 0 0.01zm-88.38 -91.86l-14.2 -24.6 -3.47 -6.01 -17.67 -30.61 0 -0.01 35.35 0 16.4 28.4 1.28 2.21 0 0.01 0.01 0 17.66 30.61 -35.35 0zm108.25 65.04l-2.2 -3.8 -17.67 -30.62 -10.74 -18.6 -6.94 -12.02 -0.01 0 -17.66 -30.61 -6.01 -10.4 -11.68 -20.22 -17.67 -30.61 -106.05 0 12.93 22.41 4.74 8.2 17.67 30.62 8.2 14.2 9.47 16.41 17.67 30.62 3.47 6.01 14.21 24.61 16.4 28.4 1.28 2.21 17.67 30.62 11.68 20.21 6.01 10.4 0 0.01 17.67 30.61 6.94 -12.02 10.73 -18.59 0.01 0 0 -0.01 17.67 -30.6 0 -0.02 2.2 -3.8 15.48 -26.81 -15.48 -26.81z"/>
  </g>
 </g>
</svg>
